<?xml version="1.0" encoding="utf-8" standalone="no"?>
<!DOCTYPE svg PUBLIC "-//W3C//DTD SVG 1.1//EN"
  "http://www.w3.org/Graphics/SVG/1.1/DTD/svg11.dtd">
<svg xmlns:xlink="http://www.w3.org/1999/xlink" width="864pt" height="432pt" viewBox="0 0 864 432" xmlns="http://www.w3.org/2000/svg" version="1.1">
 <metadata>
  <rdf:RDF xmlns:dc="http://purl.org/dc/elements/1.1/" xmlns:cc="http://creativecommons.org/ns#" xmlns:rdf="http://www.w3.org/1999/02/22-rdf-syntax-ns#">
   <cc:Work>
    <dc:type rdf:resource="http://purl.org/dc/dcmitype/StillImage"/>
    <dc:date>2023-02-28T15:01:21.542964</dc:date>
    <dc:format>image/svg+xml</dc:format>
    <dc:creator>
     <cc:Agent>
      <dc:title>Matplotlib v3.5.3, https://matplotlib.org/</dc:title>
     </cc:Agent>
    </dc:creator>
   </cc:Work>
  </rdf:RDF>
 </metadata>
 <defs>
  <style type="text/css">*{stroke-linejoin: round; stroke-linecap: butt}</style>
 </defs>
 <g id="figure_1">
  <g id="patch_1">
   <path d="M 0 432 
L 864 432 
L 864 0 
L 0 0 
z
" style="fill: #ffffff"/>
  </g>
  <g id="axes_1">
   <g id="patch_2">
    <path d="M 108 384.48 
L 777.6 384.48 
L 777.6 51.84 
L 108 51.84 
z
" style="fill: #ffffff"/>
   </g>
   <g id="matplotlib.axis_1">
    <g id="xtick_1">
     <g id="line2d_1">
      <defs>
       <path id="m405bad47e3" d="M 0 0 
L 0 3.5 
" style="stroke: #000000; stroke-width: 0.8"/>
      </defs>
      <g>
       <use xlink:href="#m405bad47e3" x="138.436364" y="384.48" style="stroke: #000000; stroke-width: 0.8"/>
      </g>
     </g>
     <g id="text_1">
      <!-- −20 -->
      <g transform="translate(127.88402 399.078438)scale(0.1 -0.1)">
       <defs>
        <path id="DejaVuSans-2212" d="M 678 2272 
L 4684 2272 
L 4684 1741 
L 678 1741 
L 678 2272 
z
" transform="scale(0.015625)"/>
        <path id="DejaVuSans-32" d="M 1228 531 
L 3431 531 
L 3431 0 
L 469 0 
L 469 531 
Q 828 903 1448 1529 
Q 2069 2156 2228 2338 
Q 2531 2678 2651 2914 
Q 2772 3150 2772 3378 
Q 2772 3750 2511 3984 
Q 2250 4219 1831 4219 
Q 1534 4219 1204 4116 
Q 875 4013 500 3803 
L 500 4441 
Q 881 4594 1212 4672 
Q 1544 4750 1819 4750 
Q 2544 4750 2975 4387 
Q 3406 4025 3406 3419 
Q 3406 3131 3298 2873 
Q 3191 2616 2906 2266 
Q 2828 2175 2409 1742 
Q 1991 1309 1228 531 
z
" transform="scale(0.015625)"/>
        <path id="DejaVuSans-30" d="M 2034 4250 
Q 1547 4250 1301 3770 
Q 1056 3291 1056 2328 
Q 1056 1369 1301 889 
Q 1547 409 2034 409 
Q 2525 409 2770 889 
Q 3016 1369 3016 2328 
Q 3016 3291 2770 3770 
Q 2525 4250 2034 4250 
z
M 2034 4750 
Q 2819 4750 3233 4129 
Q 3647 3509 3647 2328 
Q 3647 1150 3233 529 
Q 2819 -91 2034 -91 
Q 1250 -91 836 529 
Q 422 1150 422 2328 
Q 422 3509 836 4129 
Q 1250 4750 2034 4750 
z
" transform="scale(0.015625)"/>
       </defs>
       <use xlink:href="#DejaVuSans-2212"/>
       <use xlink:href="#DejaVuSans-32" x="83.789062"/>
       <use xlink:href="#DejaVuSans-30" x="147.412109"/>
      </g>
     </g>
    </g>
    <g id="xtick_2">
     <g id="line2d_2">
      <g>
       <use xlink:href="#m405bad47e3" x="239.890909" y="384.48" style="stroke: #000000; stroke-width: 0.8"/>
      </g>
     </g>
     <g id="text_2">
      <!-- 0 -->
      <g transform="translate(236.709659 399.078438)scale(0.1 -0.1)">
       <use xlink:href="#DejaVuSans-30"/>
      </g>
     </g>
    </g>
    <g id="xtick_3">
     <g id="line2d_3">
      <g>
       <use xlink:href="#m405bad47e3" x="341.345455" y="384.48" style="stroke: #000000; stroke-width: 0.8"/>
      </g>
     </g>
     <g id="text_3">
      <!-- 20 -->
      <g transform="translate(334.982955 399.078438)scale(0.1 -0.1)">
       <use xlink:href="#DejaVuSans-32"/>
       <use xlink:href="#DejaVuSans-30" x="63.623047"/>
      </g>
     </g>
    </g>
    <g id="xtick_4">
     <g id="line2d_4">
      <g>
       <use xlink:href="#m405bad47e3" x="442.8" y="384.48" style="stroke: #000000; stroke-width: 0.8"/>
      </g>
     </g>
     <g id="text_4">
      <!-- 40 -->
      <g transform="translate(436.4375 399.078438)scale(0.1 -0.1)">
       <defs>
        <path id="DejaVuSans-34" d="M 2419 4116 
L 825 1625 
L 2419 1625 
L 2419 4116 
z
M 2253 4666 
L 3047 4666 
L 3047 1625 
L 3713 1625 
L 3713 1100 
L 3047 1100 
L 3047 0 
L 2419 0 
L 2419 1100 
L 313 1100 
L 313 1709 
L 2253 4666 
z
" transform="scale(0.015625)"/>
       </defs>
       <use xlink:href="#DejaVuSans-34"/>
       <use xlink:href="#DejaVuSans-30" x="63.623047"/>
      </g>
     </g>
    </g>
    <g id="xtick_5">
     <g id="line2d_5">
      <g>
       <use xlink:href="#m405bad47e3" x="544.254545" y="384.48" style="stroke: #000000; stroke-width: 0.8"/>
      </g>
     </g>
     <g id="text_5">
      <!-- 60 -->
      <g transform="translate(537.892045 399.078438)scale(0.1 -0.1)">
       <defs>
        <path id="DejaVuSans-36" d="M 2113 2584 
Q 1688 2584 1439 2293 
Q 1191 2003 1191 1497 
Q 1191 994 1439 701 
Q 1688 409 2113 409 
Q 2538 409 2786 701 
Q 3034 994 3034 1497 
Q 3034 2003 2786 2293 
Q 2538 2584 2113 2584 
z
M 3366 4563 
L 3366 3988 
Q 3128 4100 2886 4159 
Q 2644 4219 2406 4219 
Q 1781 4219 1451 3797 
Q 1122 3375 1075 2522 
Q 1259 2794 1537 2939 
Q 1816 3084 2150 3084 
Q 2853 3084 3261 2657 
Q 3669 2231 3669 1497 
Q 3669 778 3244 343 
Q 2819 -91 2113 -91 
Q 1303 -91 875 529 
Q 447 1150 447 2328 
Q 447 3434 972 4092 
Q 1497 4750 2381 4750 
Q 2619 4750 2861 4703 
Q 3103 4656 3366 4563 
z
" transform="scale(0.015625)"/>
       </defs>
       <use xlink:href="#DejaVuSans-36"/>
       <use xlink:href="#DejaVuSans-30" x="63.623047"/>
      </g>
     </g>
    </g>
    <g id="xtick_6">
     <g id="line2d_6">
      <g>
       <use xlink:href="#m405bad47e3" x="645.709091" y="384.48" style="stroke: #000000; stroke-width: 0.8"/>
      </g>
     </g>
     <g id="text_6">
      <!-- 80 -->
      <g transform="translate(639.346591 399.078438)scale(0.1 -0.1)">
       <defs>
        <path id="DejaVuSans-38" d="M 2034 2216 
Q 1584 2216 1326 1975 
Q 1069 1734 1069 1313 
Q 1069 891 1326 650 
Q 1584 409 2034 409 
Q 2484 409 2743 651 
Q 3003 894 3003 1313 
Q 3003 1734 2745 1975 
Q 2488 2216 2034 2216 
z
M 1403 2484 
Q 997 2584 770 2862 
Q 544 3141 544 3541 
Q 544 4100 942 4425 
Q 1341 4750 2034 4750 
Q 2731 4750 3128 4425 
Q 3525 4100 3525 3541 
Q 3525 3141 3298 2862 
Q 3072 2584 2669 2484 
Q 3125 2378 3379 2068 
Q 3634 1759 3634 1313 
Q 3634 634 3220 271 
Q 2806 -91 2034 -91 
Q 1263 -91 848 271 
Q 434 634 434 1313 
Q 434 1759 690 2068 
Q 947 2378 1403 2484 
z
M 1172 3481 
Q 1172 3119 1398 2916 
Q 1625 2713 2034 2713 
Q 2441 2713 2670 2916 
Q 2900 3119 2900 3481 
Q 2900 3844 2670 4047 
Q 2441 4250 2034 4250 
Q 1625 4250 1398 4047 
Q 1172 3844 1172 3481 
z
" transform="scale(0.015625)"/>
       </defs>
       <use xlink:href="#DejaVuSans-38"/>
       <use xlink:href="#DejaVuSans-30" x="63.623047"/>
      </g>
     </g>
    </g>
    <g id="xtick_7">
     <g id="line2d_7">
      <g>
       <use xlink:href="#m405bad47e3" x="747.163636" y="384.48" style="stroke: #000000; stroke-width: 0.8"/>
      </g>
     </g>
     <g id="text_7">
      <!-- 100 -->
      <g transform="translate(737.619886 399.078438)scale(0.1 -0.1)">
       <defs>
        <path id="DejaVuSans-31" d="M 794 531 
L 1825 531 
L 1825 4091 
L 703 3866 
L 703 4441 
L 1819 4666 
L 2450 4666 
L 2450 531 
L 3481 531 
L 3481 0 
L 794 0 
L 794 531 
z
" transform="scale(0.015625)"/>
       </defs>
       <use xlink:href="#DejaVuSans-31"/>
       <use xlink:href="#DejaVuSans-30" x="63.623047"/>
       <use xlink:href="#DejaVuSans-30" x="127.246094"/>
      </g>
     </g>
    </g>
    <g id="text_8">
     <!-- Temperature -->
     <g transform="translate(411.130469 412.756563)scale(0.1 -0.1)">
      <defs>
       <path id="DejaVuSans-54" d="M -19 4666 
L 3928 4666 
L 3928 4134 
L 2272 4134 
L 2272 0 
L 1638 0 
L 1638 4134 
L -19 4134 
L -19 4666 
z
" transform="scale(0.015625)"/>
       <path id="DejaVuSans-65" d="M 3597 1894 
L 3597 1613 
L 953 1613 
Q 991 1019 1311 708 
Q 1631 397 2203 397 
Q 2534 397 2845 478 
Q 3156 559 3463 722 
L 3463 178 
Q 3153 47 2828 -22 
Q 2503 -91 2169 -91 
Q 1331 -91 842 396 
Q 353 884 353 1716 
Q 353 2575 817 3079 
Q 1281 3584 2069 3584 
Q 2775 3584 3186 3129 
Q 3597 2675 3597 1894 
z
M 3022 2063 
Q 3016 2534 2758 2815 
Q 2500 3097 2075 3097 
Q 1594 3097 1305 2825 
Q 1016 2553 972 2059 
L 3022 2063 
z
" transform="scale(0.015625)"/>
       <path id="DejaVuSans-6d" d="M 3328 2828 
Q 3544 3216 3844 3400 
Q 4144 3584 4550 3584 
Q 5097 3584 5394 3201 
Q 5691 2819 5691 2113 
L 5691 0 
L 5113 0 
L 5113 2094 
Q 5113 2597 4934 2840 
Q 4756 3084 4391 3084 
Q 3944 3084 3684 2787 
Q 3425 2491 3425 1978 
L 3425 0 
L 2847 0 
L 2847 2094 
Q 2847 2600 2669 2842 
Q 2491 3084 2119 3084 
Q 1678 3084 1418 2786 
Q 1159 2488 1159 1978 
L 1159 0 
L 581 0 
L 581 3500 
L 1159 3500 
L 1159 2956 
Q 1356 3278 1631 3431 
Q 1906 3584 2284 3584 
Q 2666 3584 2933 3390 
Q 3200 3197 3328 2828 
z
" transform="scale(0.015625)"/>
       <path id="DejaVuSans-70" d="M 1159 525 
L 1159 -1331 
L 581 -1331 
L 581 3500 
L 1159 3500 
L 1159 2969 
Q 1341 3281 1617 3432 
Q 1894 3584 2278 3584 
Q 2916 3584 3314 3078 
Q 3713 2572 3713 1747 
Q 3713 922 3314 415 
Q 2916 -91 2278 -91 
Q 1894 -91 1617 61 
Q 1341 213 1159 525 
z
M 3116 1747 
Q 3116 2381 2855 2742 
Q 2594 3103 2138 3103 
Q 1681 3103 1420 2742 
Q 1159 2381 1159 1747 
Q 1159 1113 1420 752 
Q 1681 391 2138 391 
Q 2594 391 2855 752 
Q 3116 1113 3116 1747 
z
" transform="scale(0.015625)"/>
       <path id="DejaVuSans-72" d="M 2631 2963 
Q 2534 3019 2420 3045 
Q 2306 3072 2169 3072 
Q 1681 3072 1420 2755 
Q 1159 2438 1159 1844 
L 1159 0 
L 581 0 
L 581 3500 
L 1159 3500 
L 1159 2956 
Q 1341 3275 1631 3429 
Q 1922 3584 2338 3584 
Q 2397 3584 2469 3576 
Q 2541 3569 2628 3553 
L 2631 2963 
z
" transform="scale(0.015625)"/>
       <path id="DejaVuSans-61" d="M 2194 1759 
Q 1497 1759 1228 1600 
Q 959 1441 959 1056 
Q 959 750 1161 570 
Q 1363 391 1709 391 
Q 2188 391 2477 730 
Q 2766 1069 2766 1631 
L 2766 1759 
L 2194 1759 
z
M 3341 1997 
L 3341 0 
L 2766 0 
L 2766 531 
Q 2569 213 2275 61 
Q 1981 -91 1556 -91 
Q 1019 -91 701 211 
Q 384 513 384 1019 
Q 384 1609 779 1909 
Q 1175 2209 1959 2209 
L 2766 2209 
L 2766 2266 
Q 2766 2663 2505 2880 
Q 2244 3097 1772 3097 
Q 1472 3097 1187 3025 
Q 903 2953 641 2809 
L 641 3341 
Q 956 3463 1253 3523 
Q 1550 3584 1831 3584 
Q 2591 3584 2966 3190 
Q 3341 2797 3341 1997 
z
" transform="scale(0.015625)"/>
       <path id="DejaVuSans-74" d="M 1172 4494 
L 1172 3500 
L 2356 3500 
L 2356 3053 
L 1172 3053 
L 1172 1153 
Q 1172 725 1289 603 
Q 1406 481 1766 481 
L 2356 481 
L 2356 0 
L 1766 0 
Q 1100 0 847 248 
Q 594 497 594 1153 
L 594 3053 
L 172 3053 
L 172 3500 
L 594 3500 
L 594 4494 
L 1172 4494 
z
" transform="scale(0.015625)"/>
       <path id="DejaVuSans-75" d="M 544 1381 
L 544 3500 
L 1119 3500 
L 1119 1403 
Q 1119 906 1312 657 
Q 1506 409 1894 409 
Q 2359 409 2629 706 
Q 2900 1003 2900 1516 
L 2900 3500 
L 3475 3500 
L 3475 0 
L 2900 0 
L 2900 538 
Q 2691 219 2414 64 
Q 2138 -91 1772 -91 
Q 1169 -91 856 284 
Q 544 659 544 1381 
z
M 1991 3584 
L 1991 3584 
z
" transform="scale(0.015625)"/>
      </defs>
      <use xlink:href="#DejaVuSans-54"/>
      <use xlink:href="#DejaVuSans-65" x="44.083984"/>
      <use xlink:href="#DejaVuSans-6d" x="105.607422"/>
      <use xlink:href="#DejaVuSans-70" x="203.019531"/>
      <use xlink:href="#DejaVuSans-65" x="266.496094"/>
      <use xlink:href="#DejaVuSans-72" x="328.019531"/>
      <use xlink:href="#DejaVuSans-61" x="369.132812"/>
      <use xlink:href="#DejaVuSans-74" x="430.412109"/>
      <use xlink:href="#DejaVuSans-75" x="469.621094"/>
      <use xlink:href="#DejaVuSans-72" x="533"/>
      <use xlink:href="#DejaVuSans-65" x="571.863281"/>
     </g>
    </g>
   </g>
   <g id="matplotlib.axis_2">
    <g id="ytick_1">
     <g id="line2d_8">
      <defs>
       <path id="m3510225d5a" d="M 0 0 
L -3.5 0 
" style="stroke: #000000; stroke-width: 0.8"/>
      </defs>
      <g>
       <use xlink:href="#m3510225d5a" x="108" y="360.49132" style="stroke: #000000; stroke-width: 0.8"/>
      </g>
     </g>
     <g id="text_9">
      <!-- −2 -->
      <g transform="translate(86.257812 364.290539)scale(0.1 -0.1)">
       <use xlink:href="#DejaVuSans-2212"/>
       <use xlink:href="#DejaVuSans-32" x="83.789062"/>
      </g>
     </g>
    </g>
    <g id="ytick_2">
     <g id="line2d_9">
      <g>
       <use xlink:href="#m3510225d5a" x="108" y="301.782861" style="stroke: #000000; stroke-width: 0.8"/>
      </g>
     </g>
     <g id="text_10">
      <!-- −1 -->
      <g transform="translate(86.257812 305.58208)scale(0.1 -0.1)">
       <use xlink:href="#DejaVuSans-2212"/>
       <use xlink:href="#DejaVuSans-31" x="83.789062"/>
      </g>
     </g>
    </g>
    <g id="ytick_3">
     <g id="line2d_10">
      <g>
       <use xlink:href="#m3510225d5a" x="108" y="243.074402" style="stroke: #000000; stroke-width: 0.8"/>
      </g>
     </g>
     <g id="text_11">
      <!-- 0 -->
      <g transform="translate(94.6375 246.873621)scale(0.1 -0.1)">
       <use xlink:href="#DejaVuSans-30"/>
      </g>
     </g>
    </g>
    <g id="ytick_4">
     <g id="line2d_11">
      <g>
       <use xlink:href="#m3510225d5a" x="108" y="184.365943" style="stroke: #000000; stroke-width: 0.8"/>
      </g>
     </g>
     <g id="text_12">
      <!-- 1 -->
      <g transform="translate(94.6375 188.165162)scale(0.1 -0.1)">
       <use xlink:href="#DejaVuSans-31"/>
      </g>
     </g>
    </g>
    <g id="ytick_5">
     <g id="line2d_12">
      <g>
       <use xlink:href="#m3510225d5a" x="108" y="125.657484" style="stroke: #000000; stroke-width: 0.8"/>
      </g>
     </g>
     <g id="text_13">
      <!-- 2 -->
      <g transform="translate(94.6375 129.456703)scale(0.1 -0.1)">
       <use xlink:href="#DejaVuSans-32"/>
      </g>
     </g>
    </g>
    <g id="ytick_6">
     <g id="line2d_13">
      <g>
       <use xlink:href="#m3510225d5a" x="108" y="66.949026" style="stroke: #000000; stroke-width: 0.8"/>
      </g>
     </g>
     <g id="text_14">
      <!-- 3 -->
      <g transform="translate(94.6375 70.748244)scale(0.1 -0.1)">
       <defs>
        <path id="DejaVuSans-33" d="M 2597 2516 
Q 3050 2419 3304 2112 
Q 3559 1806 3559 1356 
Q 3559 666 3084 287 
Q 2609 -91 1734 -91 
Q 1441 -91 1130 -33 
Q 819 25 488 141 
L 488 750 
Q 750 597 1062 519 
Q 1375 441 1716 441 
Q 2309 441 2620 675 
Q 2931 909 2931 1356 
Q 2931 1769 2642 2001 
Q 2353 2234 1838 2234 
L 1294 2234 
L 1294 2753 
L 1863 2753 
Q 2328 2753 2575 2939 
Q 2822 3125 2822 3475 
Q 2822 3834 2567 4026 
Q 2313 4219 1838 4219 
Q 1578 4219 1281 4162 
Q 984 4106 628 3988 
L 628 4550 
Q 988 4650 1302 4700 
Q 1616 4750 1894 4750 
Q 2613 4750 3031 4423 
Q 3450 4097 3450 3541 
Q 3450 3153 3228 2886 
Q 3006 2619 2597 2516 
z
" transform="scale(0.015625)"/>
       </defs>
       <use xlink:href="#DejaVuSans-33"/>
      </g>
     </g>
    </g>
    <g id="text_15">
     <!-- Error -->
     <g transform="translate(80.178125 230.345156)rotate(-90)scale(0.1 -0.1)">
      <defs>
       <path id="DejaVuSans-45" d="M 628 4666 
L 3578 4666 
L 3578 4134 
L 1259 4134 
L 1259 2753 
L 3481 2753 
L 3481 2222 
L 1259 2222 
L 1259 531 
L 3634 531 
L 3634 0 
L 628 0 
L 628 4666 
z
" transform="scale(0.015625)"/>
       <path id="DejaVuSans-6f" d="M 1959 3097 
Q 1497 3097 1228 2736 
Q 959 2375 959 1747 
Q 959 1119 1226 758 
Q 1494 397 1959 397 
Q 2419 397 2687 759 
Q 2956 1122 2956 1747 
Q 2956 2369 2687 2733 
Q 2419 3097 1959 3097 
z
M 1959 3584 
Q 2709 3584 3137 3096 
Q 3566 2609 3566 1747 
Q 3566 888 3137 398 
Q 2709 -91 1959 -91 
Q 1206 -91 779 398 
Q 353 888 353 1747 
Q 353 2609 779 3096 
Q 1206 3584 1959 3584 
z
" transform="scale(0.015625)"/>
      </defs>
      <use xlink:href="#DejaVuSans-45"/>
      <use xlink:href="#DejaVuSans-72" x="63.183594"/>
      <use xlink:href="#DejaVuSans-72" x="102.546875"/>
      <use xlink:href="#DejaVuSans-6f" x="141.410156"/>
      <use xlink:href="#DejaVuSans-72" x="202.591797"/>
     </g>
    </g>
   </g>
   <g id="line2d_14">
    <defs>
     <path id="mb88623fdc2" d="M 0 3 
C 0.795609 3 1.55874 2.683901 2.12132 2.12132 
C 2.683901 1.55874 3 0.795609 3 0 
C 3 -0.795609 2.683901 -1.55874 2.12132 -2.12132 
C 1.55874 -2.683901 0.795609 -3 0 -3 
C -0.795609 -3 -1.55874 -2.683901 -2.12132 -2.12132 
C -2.683901 -1.55874 -3 -0.795609 -3 0 
C -3 0.795609 -2.683901 1.55874 -2.12132 2.12132 
C -1.55874 2.683901 -0.795609 3 0 3 
z
" style="stroke: #1f77b4"/>
    </defs>
    <g clip-path="url(#pf201a19902)">
     <use xlink:href="#mb88623fdc2" x="138.436364" y="196.420731" style="fill: #1f77b4; stroke: #1f77b4"/>
     <use xlink:href="#mb88623fdc2" x="239.890909" y="211.652697" style="fill: #1f77b4; stroke: #1f77b4"/>
     <use xlink:href="#mb88623fdc2" x="341.345455" y="237.164078" style="fill: #1f77b4; stroke: #1f77b4"/>
     <use xlink:href="#mb88623fdc2" x="442.8" y="230.731353" style="fill: #1f77b4; stroke: #1f77b4"/>
     <use xlink:href="#mb88623fdc2" x="544.254545" y="233.759337" style="fill: #1f77b4; stroke: #1f77b4"/>
     <use xlink:href="#mb88623fdc2" x="645.709091" y="239.400093" style="fill: #1f77b4; stroke: #1f77b4"/>
     <use xlink:href="#mb88623fdc2" x="747.163636" y="248.92215" style="fill: #1f77b4; stroke: #1f77b4"/>
     <use xlink:href="#mb88623fdc2" x="138.436364" y="204.880017" style="fill: #1f77b4; stroke: #1f77b4"/>
     <use xlink:href="#mb88623fdc2" x="239.890909" y="247.755903" style="fill: #1f77b4; stroke: #1f77b4"/>
     <use xlink:href="#mb88623fdc2" x="341.345455" y="261.375019" style="fill: #1f77b4; stroke: #1f77b4"/>
     <use xlink:href="#mb88623fdc2" x="442.8" y="254.183965" style="fill: #1f77b4; stroke: #1f77b4"/>
     <use xlink:href="#mb88623fdc2" x="544.254545" y="250.774727" style="fill: #1f77b4; stroke: #1f77b4"/>
     <use xlink:href="#mb88623fdc2" x="645.709091" y="245.547218" style="fill: #1f77b4; stroke: #1f77b4"/>
     <use xlink:href="#mb88623fdc2" x="747.163636" y="242.450867" style="fill: #1f77b4; stroke: #1f77b4"/>
     <use xlink:href="#mb88623fdc2" x="138.436364" y="142.085133" style="fill: #1f77b4; stroke: #1f77b4"/>
     <use xlink:href="#mb88623fdc2" x="239.890909" y="277.604483" style="fill: #1f77b4; stroke: #1f77b4"/>
     <use xlink:href="#mb88623fdc2" x="341.345455" y="300.298964" style="fill: #1f77b4; stroke: #1f77b4"/>
     <use xlink:href="#mb88623fdc2" x="442.8" y="283.177613" style="fill: #1f77b4; stroke: #1f77b4"/>
     <use xlink:href="#mb88623fdc2" x="544.254545" y="263.282516" style="fill: #1f77b4; stroke: #1f77b4"/>
     <use xlink:href="#mb88623fdc2" x="645.709091" y="248.259793" style="fill: #1f77b4; stroke: #1f77b4"/>
     <use xlink:href="#mb88623fdc2" x="747.163636" y="240.421933" style="fill: #1f77b4; stroke: #1f77b4"/>
     <use xlink:href="#mb88623fdc2" x="138.436364" y="123.485047" style="fill: #1f77b4; stroke: #1f77b4"/>
     <use xlink:href="#mb88623fdc2" x="239.890909" y="273.383699" style="fill: #1f77b4; stroke: #1f77b4"/>
     <use xlink:href="#mb88623fdc2" x="341.345455" y="290.84309" style="fill: #1f77b4; stroke: #1f77b4"/>
     <use xlink:href="#mb88623fdc2" x="442.8" y="277.300639" style="fill: #1f77b4; stroke: #1f77b4"/>
     <use xlink:href="#mb88623fdc2" x="544.254545" y="260.538187" style="fill: #1f77b4; stroke: #1f77b4"/>
     <use xlink:href="#mb88623fdc2" x="645.709091" y="248.372059" style="fill: #1f77b4; stroke: #1f77b4"/>
     <use xlink:href="#mb88623fdc2" x="747.163636" y="239.465815" style="fill: #1f77b4; stroke: #1f77b4"/>
     <use xlink:href="#mb88623fdc2" x="138.436364" y="228.290592" style="fill: #1f77b4; stroke: #1f77b4"/>
     <use xlink:href="#mb88623fdc2" x="239.890909" y="251.633689" style="fill: #1f77b4; stroke: #1f77b4"/>
     <use xlink:href="#mb88623fdc2" x="341.345455" y="262.806412" style="fill: #1f77b4; stroke: #1f77b4"/>
     <use xlink:href="#mb88623fdc2" x="442.8" y="258.833219" style="fill: #1f77b4; stroke: #1f77b4"/>
     <use xlink:href="#mb88623fdc2" x="544.254545" y="254.094369" style="fill: #1f77b4; stroke: #1f77b4"/>
     <use xlink:href="#mb88623fdc2" x="645.709091" y="246.6822" style="fill: #1f77b4; stroke: #1f77b4"/>
     <use xlink:href="#mb88623fdc2" x="747.163636" y="243.077774" style="fill: #1f77b4; stroke: #1f77b4"/>
     <use xlink:href="#mb88623fdc2" x="138.436364" y="74.361916" style="fill: #1f77b4; stroke: #1f77b4"/>
     <use xlink:href="#mb88623fdc2" x="239.890909" y="254.842543" style="fill: #1f77b4; stroke: #1f77b4"/>
     <use xlink:href="#mb88623fdc2" x="341.345455" y="262.707984" style="fill: #1f77b4; stroke: #1f77b4"/>
     <use xlink:href="#mb88623fdc2" x="442.8" y="256.219445" style="fill: #1f77b4; stroke: #1f77b4"/>
     <use xlink:href="#mb88623fdc2" x="544.254545" y="251.745551" style="fill: #1f77b4; stroke: #1f77b4"/>
     <use xlink:href="#mb88623fdc2" x="645.709091" y="247.614838" style="fill: #1f77b4; stroke: #1f77b4"/>
     <use xlink:href="#mb88623fdc2" x="747.163636" y="236.270043" style="fill: #1f77b4; stroke: #1f77b4"/>
     <use xlink:href="#mb88623fdc2" x="138.436364" y="87.573248" style="fill: #1f77b4; stroke: #1f77b4"/>
     <use xlink:href="#mb88623fdc2" x="239.890909" y="313.757942" style="fill: #1f77b4; stroke: #1f77b4"/>
     <use xlink:href="#mb88623fdc2" x="341.345455" y="369.36" style="fill: #1f77b4; stroke: #1f77b4"/>
     <use xlink:href="#mb88623fdc2" x="442.8" y="348.449527" style="fill: #1f77b4; stroke: #1f77b4"/>
     <use xlink:href="#mb88623fdc2" x="544.254545" y="310.374345" style="fill: #1f77b4; stroke: #1f77b4"/>
     <use xlink:href="#mb88623fdc2" x="645.709091" y="267.858397" style="fill: #1f77b4; stroke: #1f77b4"/>
     <use xlink:href="#mb88623fdc2" x="747.163636" y="220.325224" style="fill: #1f77b4; stroke: #1f77b4"/>
     <use xlink:href="#mb88623fdc2" x="138.436364" y="84.207642" style="fill: #1f77b4; stroke: #1f77b4"/>
     <use xlink:href="#mb88623fdc2" x="239.890909" y="295.486566" style="fill: #1f77b4; stroke: #1f77b4"/>
     <use xlink:href="#mb88623fdc2" x="341.345455" y="320.402123" style="fill: #1f77b4; stroke: #1f77b4"/>
     <use xlink:href="#mb88623fdc2" x="442.8" y="295.072099" style="fill: #1f77b4; stroke: #1f77b4"/>
     <use xlink:href="#mb88623fdc2" x="544.254545" y="272.588241" style="fill: #1f77b4; stroke: #1f77b4"/>
     <use xlink:href="#mb88623fdc2" x="645.709091" y="252.424101" style="fill: #1f77b4; stroke: #1f77b4"/>
     <use xlink:href="#mb88623fdc2" x="747.163636" y="234.680414" style="fill: #1f77b4; stroke: #1f77b4"/>
     <use xlink:href="#mb88623fdc2" x="138.436364" y="212.060856" style="fill: #1f77b4; stroke: #1f77b4"/>
     <use xlink:href="#mb88623fdc2" x="239.890909" y="255.115286" style="fill: #1f77b4; stroke: #1f77b4"/>
     <use xlink:href="#mb88623fdc2" x="341.345455" y="259.136749" style="fill: #1f77b4; stroke: #1f77b4"/>
     <use xlink:href="#mb88623fdc2" x="442.8" y="250.843245" style="fill: #1f77b4; stroke: #1f77b4"/>
     <use xlink:href="#mb88623fdc2" x="544.254545" y="265.028948" style="fill: #1f77b4; stroke: #1f77b4"/>
     <use xlink:href="#mb88623fdc2" x="645.709091" y="251.590567" style="fill: #1f77b4; stroke: #1f77b4"/>
     <use xlink:href="#mb88623fdc2" x="747.163636" y="241.017473" style="fill: #1f77b4; stroke: #1f77b4"/>
     <use xlink:href="#mb88623fdc2" x="138.436364" y="123.829619" style="fill: #1f77b4; stroke: #1f77b4"/>
     <use xlink:href="#mb88623fdc2" x="239.890909" y="277.036876" style="fill: #1f77b4; stroke: #1f77b4"/>
     <use xlink:href="#mb88623fdc2" x="341.345455" y="285.080247" style="fill: #1f77b4; stroke: #1f77b4"/>
     <use xlink:href="#mb88623fdc2" x="442.8" y="273.256636" style="fill: #1f77b4; stroke: #1f77b4"/>
     <use xlink:href="#mb88623fdc2" x="544.254545" y="259.603608" style="fill: #1f77b4; stroke: #1f77b4"/>
     <use xlink:href="#mb88623fdc2" x="645.709091" y="246.879206" style="fill: #1f77b4; stroke: #1f77b4"/>
     <use xlink:href="#mb88623fdc2" x="747.163636" y="241.813282" style="fill: #1f77b4; stroke: #1f77b4"/>
     <use xlink:href="#mb88623fdc2" x="138.436364" y="170.089398" style="fill: #1f77b4; stroke: #1f77b4"/>
     <use xlink:href="#mb88623fdc2" x="239.890909" y="271.939728" style="fill: #1f77b4; stroke: #1f77b4"/>
     <use xlink:href="#mb88623fdc2" x="341.345455" y="288.008858" style="fill: #1f77b4; stroke: #1f77b4"/>
     <use xlink:href="#mb88623fdc2" x="442.8" y="275.178477" style="fill: #1f77b4; stroke: #1f77b4"/>
     <use xlink:href="#mb88623fdc2" x="544.254545" y="259.174446" style="fill: #1f77b4; stroke: #1f77b4"/>
     <use xlink:href="#mb88623fdc2" x="645.709091" y="247.32598" style="fill: #1f77b4; stroke: #1f77b4"/>
     <use xlink:href="#mb88623fdc2" x="747.163636" y="240.079755" style="fill: #1f77b4; stroke: #1f77b4"/>
     <use xlink:href="#mb88623fdc2" x="138.436364" y="183.578209" style="fill: #1f77b4; stroke: #1f77b4"/>
     <use xlink:href="#mb88623fdc2" x="239.890909" y="252.824707" style="fill: #1f77b4; stroke: #1f77b4"/>
     <use xlink:href="#mb88623fdc2" x="341.345455" y="261.518522" style="fill: #1f77b4; stroke: #1f77b4"/>
     <use xlink:href="#mb88623fdc2" x="442.8" y="252.39467" style="fill: #1f77b4; stroke: #1f77b4"/>
     <use xlink:href="#mb88623fdc2" x="544.254545" y="244.894896" style="fill: #1f77b4; stroke: #1f77b4"/>
     <use xlink:href="#mb88623fdc2" x="645.709091" y="242.031538" style="fill: #1f77b4; stroke: #1f77b4"/>
     <use xlink:href="#mb88623fdc2" x="747.163636" y="245.801946" style="fill: #1f77b4; stroke: #1f77b4"/>
     <use xlink:href="#mb88623fdc2" x="138.436364" y="167.743886" style="fill: #1f77b4; stroke: #1f77b4"/>
     <use xlink:href="#mb88623fdc2" x="239.890909" y="281.253685" style="fill: #1f77b4; stroke: #1f77b4"/>
     <use xlink:href="#mb88623fdc2" x="341.345455" y="200.764531" style="fill: #1f77b4; stroke: #1f77b4"/>
     <use xlink:href="#mb88623fdc2" x="442.8" y="205.555495" style="fill: #1f77b4; stroke: #1f77b4"/>
     <use xlink:href="#mb88623fdc2" x="544.254545" y="215.574745" style="fill: #1f77b4; stroke: #1f77b4"/>
     <use xlink:href="#mb88623fdc2" x="645.709091" y="232.113235" style="fill: #1f77b4; stroke: #1f77b4"/>
     <use xlink:href="#mb88623fdc2" x="747.163636" y="257.017883" style="fill: #1f77b4; stroke: #1f77b4"/>
     <use xlink:href="#mb88623fdc2" x="138.436364" y="219.644018" style="fill: #1f77b4; stroke: #1f77b4"/>
     <use xlink:href="#mb88623fdc2" x="239.890909" y="245.959551" style="fill: #1f77b4; stroke: #1f77b4"/>
     <use xlink:href="#mb88623fdc2" x="341.345455" y="252.307753" style="fill: #1f77b4; stroke: #1f77b4"/>
     <use xlink:href="#mb88623fdc2" x="442.8" y="249.955434" style="fill: #1f77b4; stroke: #1f77b4"/>
     <use xlink:href="#mb88623fdc2" x="544.254545" y="244.489" style="fill: #1f77b4; stroke: #1f77b4"/>
     <use xlink:href="#mb88623fdc2" x="645.709091" y="242.697771" style="fill: #1f77b4; stroke: #1f77b4"/>
     <use xlink:href="#mb88623fdc2" x="747.163636" y="244.607718" style="fill: #1f77b4; stroke: #1f77b4"/>
     <use xlink:href="#mb88623fdc2" x="138.436364" y="66.96" style="fill: #1f77b4; stroke: #1f77b4"/>
     <use xlink:href="#mb88623fdc2" x="239.890909" y="264.899248" style="fill: #1f77b4; stroke: #1f77b4"/>
     <use xlink:href="#mb88623fdc2" x="341.345455" y="278.923417" style="fill: #1f77b4; stroke: #1f77b4"/>
     <use xlink:href="#mb88623fdc2" x="442.8" y="274.406885" style="fill: #1f77b4; stroke: #1f77b4"/>
     <use xlink:href="#mb88623fdc2" x="544.254545" y="258.879627" style="fill: #1f77b4; stroke: #1f77b4"/>
     <use xlink:href="#mb88623fdc2" x="645.709091" y="249.193338" style="fill: #1f77b4; stroke: #1f77b4"/>
     <use xlink:href="#mb88623fdc2" x="747.163636" y="236.121894" style="fill: #1f77b4; stroke: #1f77b4"/>
     <use xlink:href="#mb88623fdc2" x="138.436364" y="167.872477" style="fill: #1f77b4; stroke: #1f77b4"/>
     <use xlink:href="#mb88623fdc2" x="239.890909" y="278.906094" style="fill: #1f77b4; stroke: #1f77b4"/>
     <use xlink:href="#mb88623fdc2" x="341.345455" y="293.470192" style="fill: #1f77b4; stroke: #1f77b4"/>
     <use xlink:href="#mb88623fdc2" x="442.8" y="283.844797" style="fill: #1f77b4; stroke: #1f77b4"/>
     <use xlink:href="#mb88623fdc2" x="544.254545" y="266.749147" style="fill: #1f77b4; stroke: #1f77b4"/>
     <use xlink:href="#mb88623fdc2" x="645.709091" y="251.016374" style="fill: #1f77b4; stroke: #1f77b4"/>
     <use xlink:href="#mb88623fdc2" x="747.163636" y="238.433626" style="fill: #1f77b4; stroke: #1f77b4"/>
    </g>
   </g>
   <g id="line2d_15">
    <defs>
     <path id="m629c8be0fd" d="M 0 3 
C 0.795609 3 1.55874 2.683901 2.12132 2.12132 
C 2.683901 1.55874 3 0.795609 3 0 
C 3 -0.795609 2.683901 -1.55874 2.12132 -2.12132 
C 1.55874 -2.683901 0.795609 -3 0 -3 
C -0.795609 -3 -1.55874 -2.683901 -2.12132 -2.12132 
C -2.683901 -1.55874 -3 -0.795609 -3 0 
C -3 0.795609 -2.683901 1.55874 -2.12132 2.12132 
C -1.55874 2.683901 -0.795609 3 0 3 
z
" style="stroke: #ff0000"/>
    </defs>
    <g clip-path="url(#pf201a19902)">
     <use xlink:href="#m629c8be0fd" x="138.436364" y="204.880017" style="fill: #ff0000; stroke: #ff0000"/>
     <use xlink:href="#m629c8be0fd" x="239.890909" y="247.755903" style="fill: #ff0000; stroke: #ff0000"/>
     <use xlink:href="#m629c8be0fd" x="341.345455" y="261.375019" style="fill: #ff0000; stroke: #ff0000"/>
     <use xlink:href="#m629c8be0fd" x="442.8" y="254.183965" style="fill: #ff0000; stroke: #ff0000"/>
     <use xlink:href="#m629c8be0fd" x="544.254545" y="250.774727" style="fill: #ff0000; stroke: #ff0000"/>
     <use xlink:href="#m629c8be0fd" x="645.709091" y="245.547218" style="fill: #ff0000; stroke: #ff0000"/>
     <use xlink:href="#m629c8be0fd" x="747.163636" y="242.450867" style="fill: #ff0000; stroke: #ff0000"/>
    </g>
   </g>
   <g id="patch_3">
    <path d="M 108 384.48 
L 108 51.84 
" style="fill: none; stroke: #000000; stroke-width: 0.8; stroke-linejoin: miter; stroke-linecap: square"/>
   </g>
   <g id="patch_4">
    <path d="M 777.6 384.48 
L 777.6 51.84 
" style="fill: none; stroke: #000000; stroke-width: 0.8; stroke-linejoin: miter; stroke-linecap: square"/>
   </g>
   <g id="patch_5">
    <path d="M 108 384.48 
L 777.6 384.48 
" style="fill: none; stroke: #000000; stroke-width: 0.8; stroke-linejoin: miter; stroke-linecap: square"/>
   </g>
   <g id="patch_6">
    <path d="M 108 51.84 
L 777.6 51.84 
" style="fill: none; stroke: #000000; stroke-width: 0.8; stroke-linejoin: miter; stroke-linecap: square"/>
   </g>
   <g id="patch_7">
    <path d="M 335.345455 274.910728 
Q 338.345455 268.910728 341.345455 262.910728 
Q 344.345455 268.910728 347.345455 274.910728 
z
" style="fill: #ffff00; stroke: #000000; stroke-linecap: round"/>
   </g>
   <g id="text_16">
    <!--    Error:-0.311720262269828  INV : 6   Header : 3 -->
    <g transform="translate(341.345455 262.806412)scale(0.1 -0.1)">
     <defs>
      <path id="DejaVuSans-20" transform="scale(0.015625)"/>
      <path id="DejaVuSans-3a" d="M 750 794 
L 1409 794 
L 1409 0 
L 750 0 
L 750 794 
z
M 750 3309 
L 1409 3309 
L 1409 2516 
L 750 2516 
L 750 3309 
z
" transform="scale(0.015625)"/>
      <path id="DejaVuSans-2d" d="M 313 2009 
L 1997 2009 
L 1997 1497 
L 313 1497 
L 313 2009 
z
" transform="scale(0.015625)"/>
      <path id="DejaVuSans-2e" d="M 684 794 
L 1344 794 
L 1344 0 
L 684 0 
L 684 794 
z
" transform="scale(0.015625)"/>
      <path id="DejaVuSans-37" d="M 525 4666 
L 3525 4666 
L 3525 4397 
L 1831 0 
L 1172 0 
L 2766 4134 
L 525 4134 
L 525 4666 
z
" transform="scale(0.015625)"/>
      <path id="DejaVuSans-39" d="M 703 97 
L 703 672 
Q 941 559 1184 500 
Q 1428 441 1663 441 
Q 2288 441 2617 861 
Q 2947 1281 2994 2138 
Q 2813 1869 2534 1725 
Q 2256 1581 1919 1581 
Q 1219 1581 811 2004 
Q 403 2428 403 3163 
Q 403 3881 828 4315 
Q 1253 4750 1959 4750 
Q 2769 4750 3195 4129 
Q 3622 3509 3622 2328 
Q 3622 1225 3098 567 
Q 2575 -91 1691 -91 
Q 1453 -91 1209 -44 
Q 966 3 703 97 
z
M 1959 2075 
Q 2384 2075 2632 2365 
Q 2881 2656 2881 3163 
Q 2881 3666 2632 3958 
Q 2384 4250 1959 4250 
Q 1534 4250 1286 3958 
Q 1038 3666 1038 3163 
Q 1038 2656 1286 2365 
Q 1534 2075 1959 2075 
z
" transform="scale(0.015625)"/>
      <path id="DejaVuSans-49" d="M 628 4666 
L 1259 4666 
L 1259 0 
L 628 0 
L 628 4666 
z
" transform="scale(0.015625)"/>
      <path id="DejaVuSans-4e" d="M 628 4666 
L 1478 4666 
L 3547 763 
L 3547 4666 
L 4159 4666 
L 4159 0 
L 3309 0 
L 1241 3903 
L 1241 0 
L 628 0 
L 628 4666 
z
" transform="scale(0.015625)"/>
      <path id="DejaVuSans-56" d="M 1831 0 
L 50 4666 
L 709 4666 
L 2188 738 
L 3669 4666 
L 4325 4666 
L 2547 0 
L 1831 0 
z
" transform="scale(0.015625)"/>
      <path id="DejaVuSans-48" d="M 628 4666 
L 1259 4666 
L 1259 2753 
L 3553 2753 
L 3553 4666 
L 4184 4666 
L 4184 0 
L 3553 0 
L 3553 2222 
L 1259 2222 
L 1259 0 
L 628 0 
L 628 4666 
z
" transform="scale(0.015625)"/>
      <path id="DejaVuSans-64" d="M 2906 2969 
L 2906 4863 
L 3481 4863 
L 3481 0 
L 2906 0 
L 2906 525 
Q 2725 213 2448 61 
Q 2172 -91 1784 -91 
Q 1150 -91 751 415 
Q 353 922 353 1747 
Q 353 2572 751 3078 
Q 1150 3584 1784 3584 
Q 2172 3584 2448 3432 
Q 2725 3281 2906 2969 
z
M 947 1747 
Q 947 1113 1208 752 
Q 1469 391 1925 391 
Q 2381 391 2643 752 
Q 2906 1113 2906 1747 
Q 2906 2381 2643 2742 
Q 2381 3103 1925 3103 
Q 1469 3103 1208 2742 
Q 947 2381 947 1747 
z
" transform="scale(0.015625)"/>
     </defs>
     <use xlink:href="#DejaVuSans-20"/>
     <use xlink:href="#DejaVuSans-20" x="31.787109"/>
     <use xlink:href="#DejaVuSans-20" x="63.574219"/>
     <use xlink:href="#DejaVuSans-45" x="95.361328"/>
     <use xlink:href="#DejaVuSans-72" x="158.544922"/>
     <use xlink:href="#DejaVuSans-72" x="197.908203"/>
     <use xlink:href="#DejaVuSans-6f" x="236.771484"/>
     <use xlink:href="#DejaVuSans-72" x="297.953125"/>
     <use xlink:href="#DejaVuSans-3a" x="337.316406"/>
     <use xlink:href="#DejaVuSans-2d" x="371.007812"/>
     <use xlink:href="#DejaVuSans-30" x="407.091797"/>
     <use xlink:href="#DejaVuSans-2e" x="470.714844"/>
     <use xlink:href="#DejaVuSans-33" x="502.501953"/>
     <use xlink:href="#DejaVuSans-31" x="566.125"/>
     <use xlink:href="#DejaVuSans-31" x="629.748047"/>
     <use xlink:href="#DejaVuSans-37" x="693.371094"/>
     <use xlink:href="#DejaVuSans-32" x="756.994141"/>
     <use xlink:href="#DejaVuSans-30" x="820.617188"/>
     <use xlink:href="#DejaVuSans-32" x="884.240234"/>
     <use xlink:href="#DejaVuSans-36" x="947.863281"/>
     <use xlink:href="#DejaVuSans-32" x="1011.486328"/>
     <use xlink:href="#DejaVuSans-32" x="1075.109375"/>
     <use xlink:href="#DejaVuSans-36" x="1138.732422"/>
     <use xlink:href="#DejaVuSans-39" x="1202.355469"/>
     <use xlink:href="#DejaVuSans-38" x="1265.978516"/>
     <use xlink:href="#DejaVuSans-32" x="1329.601562"/>
     <use xlink:href="#DejaVuSans-38" x="1393.224609"/>
     <use xlink:href="#DejaVuSans-20" x="1456.847656"/>
     <use xlink:href="#DejaVuSans-20" x="1488.634766"/>
     <use xlink:href="#DejaVuSans-49" x="1520.421875"/>
     <use xlink:href="#DejaVuSans-4e" x="1549.914062"/>
     <use xlink:href="#DejaVuSans-56" x="1624.71875"/>
     <use xlink:href="#DejaVuSans-20" x="1693.126953"/>
     <use xlink:href="#DejaVuSans-3a" x="1724.914062"/>
     <use xlink:href="#DejaVuSans-20" x="1758.605469"/>
     <use xlink:href="#DejaVuSans-36" x="1790.392578"/>
     <use xlink:href="#DejaVuSans-20" x="1854.015625"/>
     <use xlink:href="#DejaVuSans-20" x="1885.802734"/>
     <use xlink:href="#DejaVuSans-20" x="1917.589844"/>
     <use xlink:href="#DejaVuSans-48" x="1949.376953"/>
     <use xlink:href="#DejaVuSans-65" x="2024.572266"/>
     <use xlink:href="#DejaVuSans-61" x="2086.095703"/>
     <use xlink:href="#DejaVuSans-64" x="2147.375"/>
     <use xlink:href="#DejaVuSans-65" x="2210.851562"/>
     <use xlink:href="#DejaVuSans-72" x="2272.375"/>
     <use xlink:href="#DejaVuSans-20" x="2313.488281"/>
     <use xlink:href="#DejaVuSans-3a" x="2345.275391"/>
     <use xlink:href="#DejaVuSans-20" x="2378.966797"/>
     <use xlink:href="#DejaVuSans-33" x="2410.753906"/>
    </g>
   </g>
   <g id="text_17">
    <!-- Temp Sensor Error Optimization -->
    <g transform="translate(347.519063 45.84)scale(0.12 -0.12)">
     <defs>
      <path id="DejaVuSans-53" d="M 3425 4513 
L 3425 3897 
Q 3066 4069 2747 4153 
Q 2428 4238 2131 4238 
Q 1616 4238 1336 4038 
Q 1056 3838 1056 3469 
Q 1056 3159 1242 3001 
Q 1428 2844 1947 2747 
L 2328 2669 
Q 3034 2534 3370 2195 
Q 3706 1856 3706 1288 
Q 3706 609 3251 259 
Q 2797 -91 1919 -91 
Q 1588 -91 1214 -16 
Q 841 59 441 206 
L 441 856 
Q 825 641 1194 531 
Q 1563 422 1919 422 
Q 2459 422 2753 634 
Q 3047 847 3047 1241 
Q 3047 1584 2836 1778 
Q 2625 1972 2144 2069 
L 1759 2144 
Q 1053 2284 737 2584 
Q 422 2884 422 3419 
Q 422 4038 858 4394 
Q 1294 4750 2059 4750 
Q 2388 4750 2728 4690 
Q 3069 4631 3425 4513 
z
" transform="scale(0.015625)"/>
      <path id="DejaVuSans-6e" d="M 3513 2113 
L 3513 0 
L 2938 0 
L 2938 2094 
Q 2938 2591 2744 2837 
Q 2550 3084 2163 3084 
Q 1697 3084 1428 2787 
Q 1159 2491 1159 1978 
L 1159 0 
L 581 0 
L 581 3500 
L 1159 3500 
L 1159 2956 
Q 1366 3272 1645 3428 
Q 1925 3584 2291 3584 
Q 2894 3584 3203 3211 
Q 3513 2838 3513 2113 
z
" transform="scale(0.015625)"/>
      <path id="DejaVuSans-73" d="M 2834 3397 
L 2834 2853 
Q 2591 2978 2328 3040 
Q 2066 3103 1784 3103 
Q 1356 3103 1142 2972 
Q 928 2841 928 2578 
Q 928 2378 1081 2264 
Q 1234 2150 1697 2047 
L 1894 2003 
Q 2506 1872 2764 1633 
Q 3022 1394 3022 966 
Q 3022 478 2636 193 
Q 2250 -91 1575 -91 
Q 1294 -91 989 -36 
Q 684 19 347 128 
L 347 722 
Q 666 556 975 473 
Q 1284 391 1588 391 
Q 1994 391 2212 530 
Q 2431 669 2431 922 
Q 2431 1156 2273 1281 
Q 2116 1406 1581 1522 
L 1381 1569 
Q 847 1681 609 1914 
Q 372 2147 372 2553 
Q 372 3047 722 3315 
Q 1072 3584 1716 3584 
Q 2034 3584 2315 3537 
Q 2597 3491 2834 3397 
z
" transform="scale(0.015625)"/>
      <path id="DejaVuSans-4f" d="M 2522 4238 
Q 1834 4238 1429 3725 
Q 1025 3213 1025 2328 
Q 1025 1447 1429 934 
Q 1834 422 2522 422 
Q 3209 422 3611 934 
Q 4013 1447 4013 2328 
Q 4013 3213 3611 3725 
Q 3209 4238 2522 4238 
z
M 2522 4750 
Q 3503 4750 4090 4092 
Q 4678 3434 4678 2328 
Q 4678 1225 4090 567 
Q 3503 -91 2522 -91 
Q 1538 -91 948 565 
Q 359 1222 359 2328 
Q 359 3434 948 4092 
Q 1538 4750 2522 4750 
z
" transform="scale(0.015625)"/>
      <path id="DejaVuSans-69" d="M 603 3500 
L 1178 3500 
L 1178 0 
L 603 0 
L 603 3500 
z
M 603 4863 
L 1178 4863 
L 1178 4134 
L 603 4134 
L 603 4863 
z
" transform="scale(0.015625)"/>
      <path id="DejaVuSans-7a" d="M 353 3500 
L 3084 3500 
L 3084 2975 
L 922 459 
L 3084 459 
L 3084 0 
L 275 0 
L 275 525 
L 2438 3041 
L 353 3041 
L 353 3500 
z
" transform="scale(0.015625)"/>
     </defs>
     <use xlink:href="#DejaVuSans-54"/>
     <use xlink:href="#DejaVuSans-65" x="44.083984"/>
     <use xlink:href="#DejaVuSans-6d" x="105.607422"/>
     <use xlink:href="#DejaVuSans-70" x="203.019531"/>
     <use xlink:href="#DejaVuSans-20" x="266.496094"/>
     <use xlink:href="#DejaVuSans-53" x="298.283203"/>
     <use xlink:href="#DejaVuSans-65" x="361.759766"/>
     <use xlink:href="#DejaVuSans-6e" x="423.283203"/>
     <use xlink:href="#DejaVuSans-73" x="486.662109"/>
     <use xlink:href="#DejaVuSans-6f" x="538.761719"/>
     <use xlink:href="#DejaVuSans-72" x="599.943359"/>
     <use xlink:href="#DejaVuSans-20" x="641.056641"/>
     <use xlink:href="#DejaVuSans-45" x="672.84375"/>
     <use xlink:href="#DejaVuSans-72" x="736.027344"/>
     <use xlink:href="#DejaVuSans-72" x="775.390625"/>
     <use xlink:href="#DejaVuSans-6f" x="814.253906"/>
     <use xlink:href="#DejaVuSans-72" x="875.435547"/>
     <use xlink:href="#DejaVuSans-20" x="916.548828"/>
     <use xlink:href="#DejaVuSans-4f" x="948.335938"/>
     <use xlink:href="#DejaVuSans-70" x="1027.046875"/>
     <use xlink:href="#DejaVuSans-74" x="1090.523438"/>
     <use xlink:href="#DejaVuSans-69" x="1129.732422"/>
     <use xlink:href="#DejaVuSans-6d" x="1157.515625"/>
     <use xlink:href="#DejaVuSans-69" x="1254.927734"/>
     <use xlink:href="#DejaVuSans-7a" x="1282.710938"/>
     <use xlink:href="#DejaVuSans-61" x="1335.201172"/>
     <use xlink:href="#DejaVuSans-74" x="1396.480469"/>
     <use xlink:href="#DejaVuSans-69" x="1435.689453"/>
     <use xlink:href="#DejaVuSans-6f" x="1463.472656"/>
     <use xlink:href="#DejaVuSans-6e" x="1524.654297"/>
    </g>
   </g>
   <g id="legend_1">
    <g id="patch_8">
     <path d="M 115 74.518125 
L 439.578125 74.518125 
Q 441.578125 74.518125 441.578125 72.518125 
L 441.578125 58.84 
Q 441.578125 56.84 439.578125 56.84 
L 115 56.84 
Q 113 56.84 113 58.84 
L 113 72.518125 
Q 113 74.518125 115 74.518125 
z
" style="fill: #ffffff; opacity: 0.8; stroke: #cccccc; stroke-linejoin: miter"/>
    </g>
    <g id="line2d_16">
     <g>
      <use xlink:href="#m629c8be0fd" x="127" y="64.938438" style="fill: #ff0000; stroke: #ff0000"/>
     </g>
    </g>
    <g id="text_18">
     <!-- Other simulated points using the same design parameters -->
     <g transform="translate(145 68.438438)scale(0.1 -0.1)">
      <defs>
       <path id="DejaVuSans-68" d="M 3513 2113 
L 3513 0 
L 2938 0 
L 2938 2094 
Q 2938 2591 2744 2837 
Q 2550 3084 2163 3084 
Q 1697 3084 1428 2787 
Q 1159 2491 1159 1978 
L 1159 0 
L 581 0 
L 581 4863 
L 1159 4863 
L 1159 2956 
Q 1366 3272 1645 3428 
Q 1925 3584 2291 3584 
Q 2894 3584 3203 3211 
Q 3513 2838 3513 2113 
z
" transform="scale(0.015625)"/>
       <path id="DejaVuSans-6c" d="M 603 4863 
L 1178 4863 
L 1178 0 
L 603 0 
L 603 4863 
z
" transform="scale(0.015625)"/>
       <path id="DejaVuSans-67" d="M 2906 1791 
Q 2906 2416 2648 2759 
Q 2391 3103 1925 3103 
Q 1463 3103 1205 2759 
Q 947 2416 947 1791 
Q 947 1169 1205 825 
Q 1463 481 1925 481 
Q 2391 481 2648 825 
Q 2906 1169 2906 1791 
z
M 3481 434 
Q 3481 -459 3084 -895 
Q 2688 -1331 1869 -1331 
Q 1566 -1331 1297 -1286 
Q 1028 -1241 775 -1147 
L 775 -588 
Q 1028 -725 1275 -790 
Q 1522 -856 1778 -856 
Q 2344 -856 2625 -561 
Q 2906 -266 2906 331 
L 2906 616 
Q 2728 306 2450 153 
Q 2172 0 1784 0 
Q 1141 0 747 490 
Q 353 981 353 1791 
Q 353 2603 747 3093 
Q 1141 3584 1784 3584 
Q 2172 3584 2450 3431 
Q 2728 3278 2906 2969 
L 2906 3500 
L 3481 3500 
L 3481 434 
z
" transform="scale(0.015625)"/>
      </defs>
      <use xlink:href="#DejaVuSans-4f"/>
      <use xlink:href="#DejaVuSans-74" x="78.710938"/>
      <use xlink:href="#DejaVuSans-68" x="117.919922"/>
      <use xlink:href="#DejaVuSans-65" x="181.298828"/>
      <use xlink:href="#DejaVuSans-72" x="242.822266"/>
      <use xlink:href="#DejaVuSans-20" x="283.935547"/>
      <use xlink:href="#DejaVuSans-73" x="315.722656"/>
      <use xlink:href="#DejaVuSans-69" x="367.822266"/>
      <use xlink:href="#DejaVuSans-6d" x="395.605469"/>
      <use xlink:href="#DejaVuSans-75" x="493.017578"/>
      <use xlink:href="#DejaVuSans-6c" x="556.396484"/>
      <use xlink:href="#DejaVuSans-61" x="584.179688"/>
      <use xlink:href="#DejaVuSans-74" x="645.458984"/>
      <use xlink:href="#DejaVuSans-65" x="684.667969"/>
      <use xlink:href="#DejaVuSans-64" x="746.191406"/>
      <use xlink:href="#DejaVuSans-20" x="809.667969"/>
      <use xlink:href="#DejaVuSans-70" x="841.455078"/>
      <use xlink:href="#DejaVuSans-6f" x="904.931641"/>
      <use xlink:href="#DejaVuSans-69" x="966.113281"/>
      <use xlink:href="#DejaVuSans-6e" x="993.896484"/>
      <use xlink:href="#DejaVuSans-74" x="1057.275391"/>
      <use xlink:href="#DejaVuSans-73" x="1096.484375"/>
      <use xlink:href="#DejaVuSans-20" x="1148.583984"/>
      <use xlink:href="#DejaVuSans-75" x="1180.371094"/>
      <use xlink:href="#DejaVuSans-73" x="1243.75"/>
      <use xlink:href="#DejaVuSans-69" x="1295.849609"/>
      <use xlink:href="#DejaVuSans-6e" x="1323.632812"/>
      <use xlink:href="#DejaVuSans-67" x="1387.011719"/>
      <use xlink:href="#DejaVuSans-20" x="1450.488281"/>
      <use xlink:href="#DejaVuSans-74" x="1482.275391"/>
      <use xlink:href="#DejaVuSans-68" x="1521.484375"/>
      <use xlink:href="#DejaVuSans-65" x="1584.863281"/>
      <use xlink:href="#DejaVuSans-20" x="1646.386719"/>
      <use xlink:href="#DejaVuSans-73" x="1678.173828"/>
      <use xlink:href="#DejaVuSans-61" x="1730.273438"/>
      <use xlink:href="#DejaVuSans-6d" x="1791.552734"/>
      <use xlink:href="#DejaVuSans-65" x="1888.964844"/>
      <use xlink:href="#DejaVuSans-20" x="1950.488281"/>
      <use xlink:href="#DejaVuSans-64" x="1982.275391"/>
      <use xlink:href="#DejaVuSans-65" x="2045.751953"/>
      <use xlink:href="#DejaVuSans-73" x="2107.275391"/>
      <use xlink:href="#DejaVuSans-69" x="2159.375"/>
      <use xlink:href="#DejaVuSans-67" x="2187.158203"/>
      <use xlink:href="#DejaVuSans-6e" x="2250.634766"/>
      <use xlink:href="#DejaVuSans-20" x="2314.013672"/>
      <use xlink:href="#DejaVuSans-70" x="2345.800781"/>
      <use xlink:href="#DejaVuSans-61" x="2409.277344"/>
      <use xlink:href="#DejaVuSans-72" x="2470.556641"/>
      <use xlink:href="#DejaVuSans-61" x="2511.669922"/>
      <use xlink:href="#DejaVuSans-6d" x="2572.949219"/>
      <use xlink:href="#DejaVuSans-65" x="2670.361328"/>
      <use xlink:href="#DejaVuSans-74" x="2731.884766"/>
      <use xlink:href="#DejaVuSans-65" x="2771.09375"/>
      <use xlink:href="#DejaVuSans-72" x="2832.617188"/>
      <use xlink:href="#DejaVuSans-73" x="2873.730469"/>
     </g>
    </g>
   </g>
  </g>
 </g>
 <defs>
  <clipPath id="pf201a19902">
   <rect x="108" y="51.84" width="669.6" height="332.64"/>
  </clipPath>
 </defs>
</svg>
